<svg width="486" height="64" viewBox="0 0 486 64" fill="none" xmlns="http://www.w3.org/2000/svg">
<g clip-path="url(#clip0_1_47)">
<path d="M55.2748 30.2757C53.8673 27.8747 51.8875 25.9498 49.4124 24.5008C47.5626 23.4331 45.6447 22.7555 43.4833 22.4644V14.8355C45.6447 13.9255 46.986 11.9116 46.986 9.56204C46.986 6.35953 44.3958 3.76437 41.1685 3.76437C37.9386 3.76437 35.303 6.35953 35.303 9.56204C35.303 11.9116 36.567 13.9255 38.7284 14.8355V22.4679C36.9992 22.7156 35.2062 23.2501 33.5687 24.0713C30.2243 21.5529 19.2576 13.2908 12.8423 8.46522C12.9944 7.92133 13.1117 7.36073 13.1117 6.76927C13.1117 3.22219 10.2146 0.347168 6.63578 0.347168C3.05702 0.347168 0.161255 3.22219 0.161255 6.76927C0.161255 10.3159 3.06006 13.1918 6.63882 13.1918C7.85956 13.1918 8.98863 12.8377 9.96301 12.2557L11.3168 13.274L29.92 26.5641C28.9366 27.4593 28.0206 28.4777 27.2879 29.6204C25.8031 31.9498 24.8958 34.5128 24.8958 37.3085V37.8919C24.8958 39.8544 25.2718 41.7072 25.9124 43.4477C26.4765 44.9676 27.3013 46.3493 28.3227 47.5987L22.1486 53.7353C21.2538 53.4051 20.2821 53.3374 19.3496 53.5402C18.417 53.7429 17.563 54.2077 16.8896 54.8789C16.4235 55.3388 16.054 55.8859 15.8026 56.4884C15.5512 57.0909 15.4229 57.737 15.4251 58.389C15.4256 59.7147 15.9465 60.9606 16.8922 61.898C17.3559 62.3606 17.9074 62.7273 18.5149 62.977C19.1225 63.2267 19.774 63.3544 20.4316 63.3527C21.0896 63.3543 21.7412 63.2266 22.349 62.9769C22.9567 62.7272 23.5085 62.3605 23.9724 61.898C24.4383 61.438 24.8076 60.8912 25.0592 60.2889C25.3107 59.6867 25.4394 59.0409 25.4378 58.389C25.4378 57.876 25.3578 57.3754 25.2074 56.8997L31.589 50.5715C32.4639 51.1707 33.4089 51.6751 34.4247 52.1101C36.4282 52.969 38.6397 53.4923 41.06 53.4923H41.5035C44.1793 53.4923 46.7033 52.8692 49.076 51.5946C51.5762 50.2474 53.5332 48.4053 55.0115 46.0536C56.4976 43.6955 57.3159 41.09 57.3159 38.2236V38.0804C57.3159 35.2606 56.6576 32.6591 55.2748 30.2757ZM47.4775 43.5506C45.7454 45.4592 43.7544 46.6348 41.5035 46.6348H41.1327C39.847 46.6348 38.5896 46.2825 37.3585 45.6417C35.9709 44.9362 34.9162 43.93 34.0529 42.6557C33.1607 41.405 32.6766 40.0395 32.6766 38.5917V38.152C32.6766 36.7287 32.952 35.379 33.6462 34.1043C34.3884 32.7109 35.3908 31.6275 36.7239 30.766C38.0329 29.9105 39.4308 29.4909 40.9878 29.4909H41.1327C42.5444 29.4909 43.881 29.7669 45.1423 30.4068C46.4275 31.0891 47.4775 32.0213 48.2915 33.2475C49.082 34.4742 49.5524 35.7973 49.7037 37.2386C49.7274 37.5382 49.7395 37.8451 49.7395 38.1383C49.7395 40.0944 48.9857 41.9061 47.4775 43.5506Z" fill="#D8D7D7"/>
</g>
<g clip-path="url(#clip1_1_47)">
<path d="M221.332 40.3568C221.332 44.0142 218.376 46.9701 214.719 46.9701C211.061 46.9701 208.106 44.0142 208.106 40.3568C208.106 36.6995 211.061 33.7437 214.719 33.7437H221.332V40.3568ZM224.639 40.3568C224.639 36.6995 227.595 33.7437 231.252 33.7437C234.909 33.7437 237.865 36.6995 237.865 40.3568V56.8899C237.865 60.5473 234.909 63.5032 231.252 63.5032C227.595 63.5032 224.639 60.5473 224.639 56.8899V40.3568Z" fill="#D8D7D7"/>
<path d="M231.252 13.8031C227.595 13.8031 224.639 10.8472 224.639 7.1899C224.639 3.53257 227.595 0.57666 231.252 0.57666C234.909 0.57666 237.865 3.53257 237.865 7.1899V13.8031H231.252ZM231.252 17.1599C234.909 17.1599 237.865 20.1158 237.865 23.7731C237.865 27.4304 234.909 30.3864 231.252 30.3864H214.669C211.012 30.3864 208.056 27.4304 208.056 23.7731C208.056 20.1158 211.012 17.1599 214.669 17.1599H231.252Z" fill="#D8D7D7"/>
<path d="M257.755 23.7731C257.755 20.1158 260.711 17.1599 264.368 17.1599C268.026 17.1599 270.982 20.1158 270.982 23.7731C270.982 27.4304 268.026 30.3864 264.368 30.3864H257.755V23.7731ZM254.449 23.7731C254.449 27.4304 251.493 30.3864 247.835 30.3864C244.178 30.3864 241.222 27.4304 241.222 23.7731V7.1899C241.222 3.53257 244.178 0.57666 247.835 0.57666C251.493 0.57666 254.449 3.53257 254.449 7.1899V23.7731Z" fill="#D8D7D7"/>
<path d="M247.835 50.2767C251.493 50.2767 254.449 53.2326 254.449 56.8899C254.449 60.5473 251.493 63.5032 247.835 63.5032C244.178 63.5032 241.222 60.5473 241.222 56.8899V50.2767H247.835ZM247.835 46.9701C244.178 46.9701 241.222 44.0142 241.222 40.3568C241.222 36.6995 244.178 33.7437 247.835 33.7437H264.419C268.076 33.7437 271.032 36.6995 271.032 40.3568C271.032 44.0142 268.076 46.9701 264.419 46.9701H247.835Z" fill="#D8D7D7"/>
</g>
<path fill-rule="evenodd" clip-rule="evenodd" d="M464.387 48.1876V56.2596H474.467C480.419 50.7036 483.831 42.4836 483.831 32.7116C483.831 30.5356 483.655 28.3556 483.303 26.2236H453.555V38.5316H470.603C469.907 42.4476 467.659 45.9596 464.387 48.1876Z" fill="#D8D7D7"/>
<path fill-rule="evenodd" clip-rule="evenodd" d="M453.555 63.9999C462.055 63.9999 469.243 61.1559 474.459 56.2679L474.467 56.2559L464.387 48.1879C464.351 48.2119 464.323 48.2439 464.291 48.2679C461.443 50.2239 457.803 51.3319 453.555 51.3319C445.431 51.3319 438.555 45.8279 435.975 38.4199H425.499V46.5919C430.879 57.2759 441.715 63.9999 453.555 63.9999Z" fill="#D8D7D7"/>
<mask id="mask0_1_47" style="mask-type:luminance" maskUnits="userSpaceOnUse" x="422" y="17" width="14" height="30">
<path d="M422 17.3159H435.976V46.5959H422V17.3159Z" fill="white"/>
</mask>
<g mask="url(#mask0_1_47)">
<path fill-rule="evenodd" clip-rule="evenodd" d="M435.856 38.1349C434.548 34.1909 434.544 29.8909 435.844 25.9029L435.856 25.9109C435.872 25.8629 435.9 25.8189 435.916 25.7709L435.976 17.3149H425.576C425.52 17.4309 425.44 17.5309 425.384 17.6469C420.872 26.6669 420.872 37.3349 425.384 46.3549V46.3989C425.42 46.4669 425.464 46.5269 425.5 46.5949L435.976 38.4229C435.94 38.3229 435.892 38.2349 435.856 38.1349Z" fill="#D8D7D7"/>
</g>
<mask id="mask1_1_47" style="mask-type:luminance" maskUnits="userSpaceOnUse" x="425" y="0" width="50" height="26">
<path d="M425.576 0H474.676V25.772H425.576V0Z" fill="white"/>
</mask>
<g mask="url(#mask1_1_47)">
<path fill-rule="evenodd" clip-rule="evenodd" d="M425.576 17.3164L435.912 25.7724C438.452 18.2444 445.372 12.6684 453.556 12.6684C458.072 12.5804 462.408 14.3124 465.648 17.4684L474.676 8.31243C468.932 2.89243 461.4 -0.0875699 453.556 0.000430103C441.764 0.000430103 430.98 6.71643 425.576 17.3164Z" fill="#D8D7D7"/>
</g>
<defs>
<clipPath id="clip0_1_47">
<rect width="58" height="64" fill="white"/>
</clipPath>
<clipPath id="clip1_1_47">
<rect width="64" height="64" fill="white" transform="translate(208)"/>
</clipPath>
</defs>
</svg>
