<svg width="744" height="64" viewBox="0 0 744 64" fill="none" xmlns="http://www.w3.org/2000/svg">
<g clip-path="url(#clip0_1_20)">
<path d="M13.332 40.3568C13.332 44.0142 10.3761 46.9701 6.71877 46.9701C3.06145 46.9701 0.10553 44.0142 0.10553 40.3568C0.10553 36.6995 3.06145 33.7437 6.71877 33.7437H13.332V40.3568ZM16.6386 40.3568C16.6386 36.6995 19.5946 33.7437 23.2518 33.7437C26.9092 33.7437 29.8651 36.6995 29.8651 40.3568V56.8899C29.8651 60.5473 26.9092 63.5032 23.2518 63.5032C19.5946 63.5032 16.6386 60.5473 16.6386 56.8899V40.3568Z" fill="#D8D7D7"/>
<path d="M23.2521 13.8031C19.5947 13.8031 16.6388 10.8472 16.6388 7.1899C16.6388 3.53257 19.5947 0.57666 23.2521 0.57666C26.9094 0.57666 29.8653 3.53257 29.8653 7.1899V13.8031H23.2521ZM23.2521 17.1599C26.9094 17.1599 29.8653 20.1158 29.8653 23.7731C29.8653 27.4304 26.9094 30.3864 23.2521 30.3864H6.66884C3.01152 30.3864 0.055603 27.4304 0.055603 23.7731C0.055603 20.1158 3.01152 17.1599 6.66884 17.1599H23.2521Z" fill="#D8D7D7"/>
<path d="M49.7552 23.7731C49.7552 20.1158 52.7112 17.1599 56.3685 17.1599C60.0257 17.1599 62.9817 20.1158 62.9817 23.7731C62.9817 27.4304 60.0257 30.3864 56.3685 30.3864H49.7552V23.7731ZM46.4486 23.7731C46.4486 27.4304 43.4926 30.3864 39.8353 30.3864C36.1781 30.3864 33.2221 27.4304 33.2221 23.7731V7.1899C33.2221 3.53257 36.1781 0.57666 39.8353 0.57666C43.4926 0.57666 46.4486 3.53257 46.4486 7.1899V23.7731Z" fill="#D8D7D7"/>
<path d="M39.8353 50.2767C43.4926 50.2767 46.4486 53.2326 46.4486 56.8899C46.4486 60.5473 43.4926 63.5032 39.8353 63.5032C36.1781 63.5032 33.2221 60.5473 33.2221 56.8899V50.2767H39.8353ZM39.8353 46.9701C36.1781 46.9701 33.2221 44.0142 33.2221 40.3568C33.2221 36.6995 36.1781 33.7437 39.8353 33.7437H56.4185C60.0759 33.7437 63.0318 36.6995 63.0318 40.3568C63.0318 44.0142 60.0759 46.9701 56.4185 46.9701H39.8353Z" fill="#D8D7D7"/>
</g>
<path fill-rule="evenodd" clip-rule="evenodd" d="M271.387 48.1876V56.2596H281.467C287.419 50.7036 290.831 42.4836 290.831 32.7116C290.831 30.5356 290.655 28.3556 290.303 26.2236H260.555V38.5316H277.603C276.907 42.4476 274.659 45.9596 271.387 48.1876Z" fill="#D8D7D7"/>
<path fill-rule="evenodd" clip-rule="evenodd" d="M260.555 63.9999C269.055 63.9999 276.243 61.1559 281.459 56.2679L281.467 56.2559L271.387 48.1879C271.351 48.2119 271.323 48.2439 271.291 48.2679C268.443 50.2239 264.803 51.3319 260.555 51.3319C252.431 51.3319 245.555 45.8279 242.975 38.4199H232.499V46.5919C237.879 57.2759 248.715 63.9999 260.555 63.9999Z" fill="#D8D7D7"/>
<mask id="mask0_1_20" style="mask-type:luminance" maskUnits="userSpaceOnUse" x="229" y="17" width="14" height="30">
<path d="M229 17.3159H242.976V46.5959H229V17.3159Z" fill="white"/>
</mask>
<g mask="url(#mask0_1_20)">
<path fill-rule="evenodd" clip-rule="evenodd" d="M242.856 38.1349C241.548 34.1909 241.544 29.8909 242.844 25.9029L242.856 25.9109C242.872 25.8629 242.9 25.8189 242.916 25.7709L242.976 17.3149H232.576C232.52 17.4309 232.44 17.5309 232.384 17.6469C227.872 26.6669 227.872 37.3349 232.384 46.3549V46.3989C232.42 46.4669 232.464 46.5269 232.5 46.5949L242.976 38.4229C242.94 38.3229 242.892 38.2349 242.856 38.1349Z" fill="#D8D7D7"/>
</g>
<mask id="mask1_1_20" style="mask-type:luminance" maskUnits="userSpaceOnUse" x="232" y="0" width="50" height="26">
<path d="M232.576 0H281.676V25.772H232.576V0Z" fill="white"/>
</mask>
<g mask="url(#mask1_1_20)">
<path fill-rule="evenodd" clip-rule="evenodd" d="M232.576 17.3164L242.912 25.7724C245.452 18.2444 252.372 12.6684 260.556 12.6684C265.072 12.5804 269.408 14.3124 272.648 17.4684L281.676 8.31243C275.932 2.89243 268.4 -0.0875699 260.556 0.000430103C248.764 0.000430103 237.98 6.71643 232.576 17.3164Z" fill="#D8D7D7"/>
</g>
<g clip-path="url(#clip1_1_20)">
<mask id="mask2_1_20" style="mask-type:luminance" maskUnits="userSpaceOnUse" x="458" y="0" width="63" height="64">
<path d="M520.998 0.694824H458.651V63.2291H520.998V0.694824Z" fill="white"/>
</mask>
<g mask="url(#mask2_1_20)">
<path d="M497.618 31.9756C497.619 34.2304 497.213 36.4668 496.421 38.5769C494.316 39.3717 492.086 39.779 489.837 39.7795H489.811C487.495 39.7765 485.277 39.352 483.229 38.5779C482.436 36.4676 482.031 34.2308 482.031 31.9756V31.9483C482.03 29.6939 482.435 27.4578 483.227 25.3479C485.331 24.5517 487.562 24.1442 489.811 24.1451H489.837C492.086 24.1441 494.317 24.5515 496.421 25.3477C497.213 27.4574 497.619 29.6935 497.618 31.948L497.618 31.9756ZM520.565 26.7508H502.368L515.234 13.8451C514.224 12.4222 513.098 11.0864 511.867 9.85143V9.85046C510.635 8.61688 509.304 7.488 507.886 6.47557L495.019 19.3814V1.13012C493.308 0.841368 491.575 0.695771 489.84 0.694824H489.808C488.043 0.695801 486.314 0.846277 484.629 1.13012V19.3814L471.762 6.47557C470.344 7.48774 469.013 8.61737 467.783 9.85265L467.777 9.85759C466.547 11.0909 465.422 12.4247 464.414 13.8451L477.281 26.7508H459.085C459.085 26.7508 458.651 30.1787 458.651 31.9512V31.9727C458.651 33.7451 458.801 35.4821 459.085 37.173H477.282L464.414 50.0788C466.438 52.928 468.921 55.4189 471.762 57.4493L484.629 44.5425V62.7947C486.338 63.082 488.069 63.2273 489.802 63.2291H489.846C491.579 63.2274 493.309 63.0822 495.019 62.7947V44.5425L507.887 57.4493C509.304 56.4365 510.636 55.3073 511.867 54.0734L511.87 54.0705C513.099 52.8355 514.225 51.5004 515.234 50.0788L502.366 37.173H520.565C520.848 35.4851 520.996 33.7532 520.998 31.9847V31.9392C520.996 30.1707 520.848 28.4387 520.565 26.7508Z" fill="#D8D7D7"/>
</g>
</g>
<g clip-path="url(#clip2_1_20)">
<path d="M741.275 30.2757C739.867 27.8747 737.887 25.9498 735.412 24.5008C733.563 23.4331 731.645 22.7555 729.483 22.4644V14.8355C731.645 13.9255 732.986 11.9116 732.986 9.56204C732.986 6.35953 730.396 3.76437 727.169 3.76437C723.939 3.76437 721.303 6.35953 721.303 9.56204C721.303 11.9116 722.567 13.9255 724.728 14.8355V22.4679C722.999 22.7156 721.206 23.2501 719.569 24.0713C716.224 21.5529 705.258 13.2908 698.842 8.46522C698.994 7.92133 699.112 7.36073 699.112 6.76927C699.112 3.22219 696.215 0.347168 692.636 0.347168C689.057 0.347168 686.161 3.22219 686.161 6.76927C686.161 10.3159 689.06 13.1918 692.639 13.1918C693.86 13.1918 694.989 12.8377 695.963 12.2557L697.317 13.274L715.92 26.5641C714.937 27.4593 714.021 28.4777 713.288 29.6204C711.803 31.9498 710.896 34.5128 710.896 37.3085V37.8919C710.896 39.8544 711.272 41.7072 711.912 43.4477C712.477 44.9676 713.301 46.3493 714.323 47.5987L708.149 53.7353C707.254 53.4051 706.282 53.3374 705.35 53.5402C704.417 53.7429 703.563 54.2077 702.89 54.8789C702.423 55.3388 702.054 55.8859 701.803 56.4884C701.551 57.0909 701.423 57.737 701.425 58.389C701.426 59.7147 701.946 60.9606 702.892 61.898C703.356 62.3606 703.907 62.7273 704.515 62.977C705.123 63.2267 705.774 63.3544 706.432 63.3527C707.09 63.3543 707.741 63.2266 708.349 62.9769C708.957 62.7272 709.509 62.3605 709.972 61.898C710.438 61.438 710.808 60.8912 711.059 60.2889C711.311 59.6867 711.439 59.0409 711.438 58.389C711.438 57.876 711.358 57.3754 711.207 56.8997L717.589 50.5715C718.464 51.1707 719.409 51.6751 720.425 52.1101C722.428 52.969 724.64 53.4923 727.06 53.4923H727.504C730.179 53.4923 732.703 52.8692 735.076 51.5946C737.576 50.2474 739.533 48.4053 741.012 46.0536C742.498 43.6955 743.316 41.09 743.316 38.2236V38.0804C743.316 35.2606 742.658 32.6591 741.275 30.2757ZM733.478 43.5506C731.745 45.4592 729.754 46.6348 727.504 46.6348H727.133C725.847 46.6348 724.59 46.2825 723.358 45.6417C721.971 44.9362 720.916 43.93 720.053 42.6557C719.161 41.405 718.677 40.0395 718.677 38.5917V38.152C718.677 36.7287 718.952 35.379 719.646 34.1043C720.388 32.7109 721.391 31.6275 722.724 30.766C724.033 29.9105 725.431 29.4909 726.988 29.4909H727.133C728.544 29.4909 729.881 29.7669 731.142 30.4068C732.428 31.0891 733.478 32.0213 734.291 33.2475C735.082 34.4742 735.552 35.7973 735.704 37.2386C735.727 37.5382 735.74 37.8451 735.74 38.1383C735.74 40.0944 734.986 41.9061 733.478 43.5506Z" fill="#D8D7D7"/>
</g>
<defs>
<clipPath id="clip0_1_20">
<rect width="64" height="64" fill="white"/>
</clipPath>
<clipPath id="clip1_1_20">
<rect width="63" height="64" fill="white" transform="translate(458)"/>
</clipPath>
<clipPath id="clip2_1_20">
<rect width="58" height="64" fill="white" transform="translate(686)"/>
</clipPath>
</defs>
</svg>
